# Blender v2.76 (sub 0) OBJ File: ''
# www.blender.org
mtllib cube.mtl
o Cube_Cube.001
v -1.000000 -1.000000 1.000000
v -1.000000 1.000000 1.000000
v -1.000000 -1.000000 -1.000000
v -1.000000 1.000000 -1.000000
v 1.000000 -1.000000 1.000000
v 1.000000 1.000000 1.000000
v 1.000000 -1.000000 -1.000000
v 1.000000 1.000000 -1.000000
v -1.000000 1.000000 0.000000
v 0.000000 1.000000 -1.000000
v 1.000000 1.000000 0.000000
v 0.000000 1.000000 1.000000
v 0.000000 2.000000 0.000000
vn -1.000000 0.000000 0.000000
vn 0.000000 0.000000 -1.000000
vn 1.000000 0.000000 0.000000
vn 0.000000 0.000000 1.000000
vn 0.000000 -1.000000 0.000000
vn 0.000000 0.707100 -0.707100
vn 0.707100 0.707100 0.000000
vn 0.000000 0.707100 0.707100
vn -0.707100 0.707100 0.000000
usemtl None
s off
f 9//1 4//1 3//1
f 10//2 8//2 7//2
f 11//3 6//3 5//3
f 12//4 2//4 1//4
f 7//5 5//5 3//5
f 8//6 10//6 13//6
f 11//7 8//7 13//7
f 6//7 11//7 13//7
f 12//8 6//8 13//8
f 6//4 12//4 5//4
f 5//4 12//4 1//4
f 8//3 11//3 7//3
f 7//3 11//3 5//3
f 4//2 10//2 3//2
f 3//2 10//2 7//2
f 2//1 9//1 1//1
f 1//1 9//1 3//1
f 1//5 3//5 5//5
f 10//6 4//6 13//6
f 9//9 13//9 4//9
f 9//9 2//9 13//9
f 12//8 13//8 2//8
