# Blender v2.78 (sub 0) OBJ File: ''
# www.blender.org
mtllib sphere.mtl
o Sphere
v 0.000000 0.923880 -0.382683
v 0.000000 0.707107 -0.707107
v 0.000000 0.382683 -0.923880
v 0.000000 -0.000000 -1.000000
v 0.000000 -0.382684 -0.923880
v 0.000000 -0.707107 -0.707107
v 0.146447 0.923880 -0.353553
v 0.270598 0.707107 -0.653281
v 0.353553 0.382683 -0.853553
v 0.382683 -0.000000 -0.923880
v 0.353553 -0.382684 -0.853553
v 0.270598 -0.707107 -0.653281
v 0.146447 -0.923880 -0.353553
v -0.000000 1.000000 -0.000000
v 0.270598 0.923880 -0.270598
v 0.500000 0.707107 -0.500000
v 0.653281 0.382683 -0.653281
v 0.707107 -0.000000 -0.707107
v 0.653281 -0.382684 -0.653281
v 0.500000 -0.707107 -0.500000
v 0.270598 -0.923880 -0.270598
v 0.353553 0.923880 -0.146447
v 0.653281 0.707107 -0.270598
v 0.853553 0.382683 -0.353553
v 0.923879 -0.000000 -0.382683
v 0.853553 -0.382684 -0.353553
v 0.653281 -0.707107 -0.270598
v 0.353553 -0.923880 -0.146447
v 0.382683 0.923880 -0.000000
v 0.707107 0.707107 -0.000000
v 0.923879 0.382683 -0.000000
v 1.000000 -0.000000 -0.000000
v 0.923879 -0.382684 -0.000000
v 0.707107 -0.707107 -0.000000
v 0.382683 -0.923880 -0.000000
v 0.353553 0.923880 0.146446
v 0.653281 0.707107 0.270598
v 0.853553 0.382683 0.353553
v 0.923879 -0.000000 0.382683
v 0.853553 -0.382684 0.353553
v 0.653281 -0.707107 0.270598
v 0.353553 -0.923880 0.146446
v 0.270598 0.923880 0.270598
v 0.500000 0.707107 0.500000
v 0.653281 0.382683 0.653281
v 0.707106 -0.000000 0.707107
v 0.653281 -0.382684 0.653281
v 0.500000 -0.707107 0.500000
v 0.270598 -0.923880 0.270598
v 0.146446 0.923880 0.353553
v 0.270598 0.707107 0.653281
v 0.353553 0.382683 0.853553
v 0.382683 -0.000000 0.923879
v 0.353553 -0.382684 0.853553
v 0.270598 -0.707107 0.653281
v 0.146446 -0.923880 0.353553
v -0.000000 0.923880 0.382683
v -0.000000 0.707107 0.707106
v -0.000000 0.382683 0.923879
v -0.000000 -0.000000 1.000000
v -0.000000 -0.382684 0.923879
v -0.000000 -0.707107 0.707106
v -0.000000 -0.923880 0.382683
v -0.146447 0.923880 0.353553
v -0.270598 0.707107 0.653281
v -0.353554 0.382683 0.853553
v -0.382684 -0.000000 0.923879
v -0.353554 -0.382684 0.853553
v -0.270598 -0.707107 0.653281
v -0.146447 -0.923880 0.353553
v -0.270598 0.923880 0.270598
v -0.500000 0.707107 0.499999
v -0.653282 0.382683 0.653281
v -0.707107 -0.000000 0.707106
v -0.653282 -0.382684 0.653281
v -0.500000 -0.707107 0.499999
v -0.270598 -0.923880 0.270598
v 0.000000 -1.000000 -0.000000
v -0.353553 0.923880 0.146446
v -0.653281 0.707107 0.270597
v -0.853553 0.382683 0.353553
v -0.923879 -0.000000 0.382683
v -0.853553 -0.382684 0.353553
v -0.653281 -0.707107 0.270597
v -0.353553 -0.923880 0.146446
v -0.382683 0.923880 -0.000000
v -0.707106 0.707107 -0.000000
v -0.923879 0.382683 -0.000001
v -1.000000 -0.000000 -0.000001
v -0.923879 -0.382684 -0.000001
v -0.707106 -0.707107 -0.000000
v -0.382683 -0.923880 -0.000000
v -0.353553 0.923880 -0.146447
v -0.653281 0.707107 -0.270598
v -0.853553 0.382683 -0.353554
v -0.923879 -0.000000 -0.382684
v -0.853553 -0.382684 -0.353554
v -0.653281 -0.707107 -0.270598
v -0.353553 -0.923880 -0.146447
v -0.270598 0.923880 -0.270598
v -0.499999 0.707107 -0.500000
v -0.653281 0.382683 -0.653282
v -0.707106 -0.000000 -0.707107
v -0.653281 -0.382684 -0.653282
v -0.499999 -0.707107 -0.500000
v -0.270598 -0.923880 -0.270598
v -0.146446 0.923880 -0.353553
v -0.270598 0.707107 -0.653281
v -0.353553 0.382683 -0.853553
v -0.382683 -0.000000 -0.923880
v -0.353553 -0.382684 -0.853553
v -0.270598 -0.707107 -0.653281
v -0.146446 -0.923880 -0.353553
v 0.000000 -0.923880 -0.382683
vt 0.7293 0.7762
vt 0.6311 0.9159
vt 0.6599 0.7930
vt 1.0906 0.8041
vt 1.2535 0.9499
vt 0.9872 0.8901
vt 0.1543 0.5747
vt 0.1845 0.7051
vt 0.1307 0.6922
vt 0.6686 0.6687
vt 0.6957 0.6621
vt 0.8078 0.8736
vt 0.1956 0.8293
vt 0.0906 0.8041
vt 0.1739 0.4559
vt 0.1786 0.5806
vt 0.6739 0.5441
vt 0.5976 0.7571
vt 0.6426 0.6542
vt 0.2535 0.9499
vt 0.5141 0.8355
vt 0.2856 0.7767
vt 0.2021 0.5676
vt 0.3815 0.8451
vt 0.2351 0.6769
vt 0.3311 0.6830
vt 0.2211 0.5382
vt 0.6232 0.6222
vt 0.5625 0.6870
vt 0.4051 0.7234
vt 0.2713 0.6169
vt 0.4875 0.7250
vt 0.6127 0.5791
vt 0.5487 0.6024
vt 0.4167 0.6001
vt 0.2922 0.5386
vt 0.4826 0.6099
vt 0.3530 0.5748
vt 0.2331 0.4971
vt 0.3003 0.4520
vt 0.5492 0.5143
vt 0.6112 0.5316
vt 0.4255 0.4763
vt 0.4874 0.4949
vt 0.3632 0.4612
vt 0.2370 0.4501
vt 0.5620 0.4299
vt 0.6184 0.4862
vt 0.4350 0.3526
vt 0.5014 0.3828
vt 0.3647 0.3459
vt 0.2321 0.4035
vt 0.2958 0.3643
vt 0.2181 0.3638
vt 0.6332 0.4489
vt 0.5884 0.3573
vt 0.4492 0.2296
vt 0.2749 0.2836
vt 0.5303 0.2785
vt 0.3541 0.2317
vt 0.5906 0.1959
vt 0.6307 0.3078
vt 0.3078 0.1264
vt 0.4872 0.1099
vt 0.2293 0.2238
vt 0.6543 0.4253
vt 0.1957 0.3379
vt 0.6786 0.4194
vt 0.6956 0.1707
vt 0.1311 0.0841
vt 0.1686 0.3313
vt 0.6845 0.2949
vt 0.7535 0.0501
vt 0.1599 0.2070
vt 0.8815 0.1549
vt 0.7856 0.2233
vt 0.0976 0.2429
vt 0.0141 0.1645
vt 0.1426 0.3458
vt 0.7021 0.4324
vt 0.7351 0.3231
vt 1.1311 0.0841
vt 0.7211 0.4618
vt 0.7713 0.3831
vt 1.0141 0.1645
vt 0.9051 0.2766
vt 0.1232 0.3778
vt 0.0625 0.3130
vt 0.8311 0.3170
vt 1.0976 0.2429
vt 0.9875 0.2750
vt 0.9826 0.3901
vt 0.9167 0.3999
vt 0.1127 0.4209
vt 0.0487 0.3976
vt 0.7331 0.5029
vt 0.8530 0.4252
vt 1.0625 0.3130
vt 0.7922 0.4614
vt 0.7370 0.5499
vt 0.8632 0.5388
vt 1.0487 0.3976
vt 0.9874 0.5051
vt 0.1112 0.4684
vt 0.8003 0.5480
vt 0.9255 0.5237
vt 0.0492 0.4857
vt 1.0492 0.4857
vt 1.0014 0.6172
vt 0.1184 0.5138
vt 0.7321 0.5965
vt 0.7958 0.6357
vt 0.9350 0.6474
vt 0.0620 0.5701
vt 0.8647 0.6541
vt 0.7181 0.6362
vt 0.8541 0.7683
vt 0.7749 0.7164
vt 1.0303 0.7215
vt 0.9492 0.7704
vt 0.1332 0.5511
vt 0.0884 0.6427
vt 0.0303 0.7215
vt 0.0014 0.6172
vt 1.1956 0.8293
vt 1.0620 0.5701
vn 0.0000 -0.6952 -0.7188
vn 0.3548 -0.3743 -0.8567
vn 0.2751 -0.6952 -0.6641
vn 0.0000 0.3743 -0.9273
vn 0.3827 0.0000 -0.9239
vn 0.0000 0.0000 -1.0000
vn 0.0000 0.9152 -0.4031
vn 0.2751 0.6952 -0.6641
vn 0.0000 0.6952 -0.7188
vn 0.1542 -0.9152 -0.3724
vn 0.0000 -0.9152 -0.4031
vn 0.0000 -0.3743 -0.9273
vn 0.3548 0.3743 -0.8567
vn 0.0000 1.0000 0.0000
vn 0.1542 0.9152 -0.3724
vn 0.0000 -1.0000 0.0000
vn 0.5083 -0.6952 -0.5083
vn 0.2850 -0.9152 -0.2850
vn 0.6557 -0.3743 -0.6557
vn 0.6557 0.3743 -0.6557
vn 0.2850 0.9152 -0.2850
vn 0.7071 0.0000 -0.7071
vn 0.5083 0.6952 -0.5083
vn 0.8567 0.3743 -0.3548
vn 0.3724 0.9152 -0.1542
vn 0.3724 -0.9152 -0.1542
vn 0.6641 -0.6952 -0.2751
vn 0.9239 0.0000 -0.3827
vn 0.6641 0.6952 -0.2751
vn 0.8567 -0.3743 -0.3548
vn 0.4031 -0.9152 0.0000
vn 0.7188 -0.6952 0.0000
vn 1.0000 0.0000 0.0000
vn 0.7188 0.6952 0.0000
vn 0.9273 -0.3743 0.0000
vn 0.9273 0.3743 0.0000
vn 0.4031 0.9152 0.0000
vn 0.6641 0.6952 0.2751
vn 0.6641 -0.6952 0.2751
vn 0.3724 -0.9152 0.1542
vn 0.9239 0.0000 0.3827
vn 0.8567 -0.3743 0.3548
vn 0.8567 0.3743 0.3548
vn 0.3724 0.9152 0.1542
vn 0.5083 -0.6952 0.5083
vn 0.2850 -0.9152 0.2850
vn 0.7071 0.0000 0.7071
vn 0.6557 -0.3743 0.6557
vn 0.6557 0.3743 0.6557
vn 0.2850 0.9152 0.2850
vn 0.5083 0.6952 0.5083
vn 0.1542 0.9152 0.3724
vn 0.1542 -0.9152 0.3724
vn 0.2751 -0.6952 0.6641
vn 0.3827 0.0000 0.9239
vn 0.2751 0.6952 0.6641
vn 0.3548 -0.3743 0.8567
vn 0.3548 0.3743 0.8567
vn 0.0000 -0.3743 0.9273
vn 0.0000 -0.6952 0.7188
vn 0.0000 0.3743 0.9273
vn 0.0000 0.0000 1.0000
vn 0.0000 0.6952 0.7188
vn 0.0000 -0.9152 0.4031
vn 0.0000 0.9152 0.4031
vn -0.1542 -0.9152 0.3724
vn -0.3548 -0.3743 0.8567
vn -0.3548 0.3743 0.8567
vn -0.1542 0.9152 0.3724
vn -0.2751 -0.6952 0.6641
vn -0.3827 0.0000 0.9239
vn -0.2751 0.6952 0.6641
vn -0.7071 0.0000 0.7071
vn -0.6557 -0.3743 0.6557
vn -0.5083 0.6952 0.5083
vn -0.6557 0.3743 0.6557
vn -0.2850 0.9152 0.2850
vn -0.2850 -0.9152 0.2850
vn -0.5083 -0.6952 0.5083
vn -0.3724 -0.9152 0.1542
vn -0.6641 -0.6952 0.2751
vn -0.9239 0.0000 0.3827
vn -0.3724 0.9152 0.1542
vn -0.6641 0.6952 0.2751
vn -0.8567 -0.3743 0.3548
vn -0.8567 0.3743 0.3548
vn -0.9273 0.3743 0.0000
vn -1.0000 0.0000 0.0000
vn -0.4031 0.9152 0.0000
vn -0.7188 0.6952 0.0000
vn -0.4031 -0.9152 0.0000
vn -0.9273 -0.3743 0.0000
vn -0.7188 -0.6952 0.0000
vn -0.3724 -0.9152 -0.1542
vn -0.8567 -0.3743 -0.3548
vn -0.8567 0.3743 -0.3548
vn -0.3724 0.9152 -0.1542
vn -0.6641 -0.6952 -0.2751
vn -0.9239 0.0000 -0.3827
vn -0.6641 0.6952 -0.2751
vn -0.6557 0.3743 -0.6557
vn -0.2850 0.9152 -0.2850
vn -0.2850 -0.9152 -0.2850
vn -0.5083 -0.6952 -0.5083
vn -0.7071 0.0000 -0.7071
vn -0.5083 0.6952 -0.5083
vn -0.6557 -0.3743 -0.6557
vn -0.1542 -0.9152 -0.3724
vn -0.3548 -0.3743 -0.8567
vn -0.2751 -0.6952 -0.6641
vn -0.3548 0.3743 -0.8567
vn -0.3827 0.0000 -0.9239
vn -0.1542 0.9152 -0.3724
vn -0.2751 0.6952 -0.6641
usemtl None
s 1
f 6/1/1 11/2/2 12/3/3
f 3/4/4 10/5/5 4/6/6
f 1/7/7 8/8/8 2/9/9
f 6/1/1 13/10/10 114/11/11
f 5/12/12 10/5/5 11/2/2
f 2/9/9 9/13/13 3/14/4
f 1/7/7 14/15/14 7/16/15
f 78/17/16 114/11/11 13/10/10
f 13/10/10 20/18/17 21/19/18
f 10/20/5 19/21/19 11/2/2
f 8/8/8 17/22/20 9/13/13
f 7/16/15 14/15/14 15/23/21
f 78/17/16 13/10/10 21/19/18
f 12/3/3 19/21/19 20/18/17
f 10/20/5 17/22/20 18/24/22
f 7/16/15 16/25/23 8/8/8
f 16/25/23 24/26/24 17/22/20
f 15/23/21 14/15/14 22/27/25
f 78/17/16 21/19/18 28/28/26
f 19/21/19 27/29/27 20/18/17
f 17/22/20 25/30/28 18/24/22
f 15/23/21 23/31/29 16/25/23
f 20/18/17 28/28/26 21/19/18
f 18/24/22 26/32/30 19/21/19
f 78/17/16 28/28/26 35/33/31
f 26/32/30 34/34/32 27/29/27
f 24/26/24 32/35/33 25/30/28
f 22/27/25 30/36/34 23/31/29
f 28/28/26 34/34/32 35/33/31
f 25/30/28 33/37/35 26/32/30
f 23/31/29 31/38/36 24/26/24
f 22/27/25 14/15/14 29/39/37
f 29/39/37 37/40/38 30/36/34
f 35/33/31 41/41/39 42/42/40
f 33/37/35 39/43/41 40/44/42
f 30/36/34 38/45/43 31/38/36
f 29/39/37 14/15/14 36/46/44
f 78/17/16 35/33/31 42/42/40
f 33/37/35 41/41/39 34/34/32
f 31/38/36 39/43/41 32/35/33
f 42/42/40 48/47/45 49/48/46
f 40/44/42 46/49/47 47/50/48
f 37/40/38 45/51/49 38/45/43
f 36/46/44 14/15/14 43/52/50
f 78/17/16 42/42/40 49/48/46
f 40/44/42 48/47/45 41/41/39
f 38/45/43 46/49/47 39/43/41
f 36/46/44 44/53/51 37/40/38
f 43/52/50 14/15/14 50/54/52
f 78/17/16 49/48/46 56/55/53
f 47/50/48 55/56/54 48/47/45
f 45/51/49 53/57/55 46/49/47
f 44/53/51 50/54/52 51/58/56
f 48/47/45 56/55/53 49/48/46
f 46/49/47 54/59/57 47/50/48
f 44/53/51 52/60/58 45/51/49
f 55/56/54 61/61/59 62/62/60
f 53/57/55 59/63/61 60/64/62
f 50/54/52 58/65/63 51/58/56
f 55/56/54 63/66/64 56/55/53
f 53/57/55 61/61/59 54/59/57
f 52/60/58 58/65/63 59/63/61
f 50/54/52 14/15/14 57/67/65
f 78/17/16 56/55/53 63/66/64
f 62/62/60 70/68/66 63/66/64
f 60/64/62 68/69/67 61/61/59
f 58/65/63 66/70/68 59/63/61
f 57/67/65 14/15/14 64/71/69
f 78/17/16 63/66/64 70/68/66
f 61/61/59 69/72/70 62/62/60
f 59/63/61 67/73/71 60/64/62
f 58/65/63 64/71/69 65/74/72
f 68/69/67 74/75/73 75/76/74
f 66/70/68 72/77/75 73/78/76
f 64/71/69 14/15/14 71/79/77
f 78/17/16 70/68/66 77/80/78
f 68/69/67 76/81/79 69/72/70
f 66/82/68 74/75/73 67/73/71
f 64/71/69 72/77/75 65/74/72
f 69/72/70 77/80/78 70/68/66
f 78/17/16 77/80/78 85/83/80
f 75/76/74 84/84/81 76/81/79
f 73/85/76 82/86/82 74/75/73
f 72/77/75 79/87/83 80/88/84
f 77/80/78 84/84/81 85/83/80
f 75/76/74 82/86/82 83/89/85
f 72/90/75 81/91/86 73/85/76
f 71/79/77 14/15/14 79/87/83
f 82/86/82 88/92/87 89/93/88
f 80/88/84 86/94/89 87/95/90
f 84/84/81 92/96/91 85/83/80
f 82/86/82 90/97/92 83/89/85
f 80/98/84 88/92/87 81/91/86
f 79/87/83 14/15/14 86/94/89
f 78/17/16 85/83/80 92/96/91
f 84/84/81 90/97/92 91/99/93
f 91/99/93 99/100/94 92/96/91
f 89/93/88 97/101/95 90/97/92
f 87/102/90 95/103/96 88/92/87
f 86/94/89 14/15/14 93/104/97
f 78/17/16 92/96/91 99/100/94
f 90/97/92 98/105/98 91/99/93
f 89/93/88 95/103/96 96/106/99
f 87/95/90 93/104/97 94/107/100
f 94/108/100 102/109/101 95/103/96
f 93/104/97 14/15/14 100/110/102
f 78/17/16 99/100/94 106/111/103
f 97/101/95 105/112/104 98/105/98
f 95/103/96 103/113/105 96/106/99
f 94/107/100 100/110/102 101/114/106
f 99/100/94 105/112/104 106/111/103
f 96/106/99 104/115/107 97/101/95
f 78/17/16 106/111/103 113/116/108
f 105/112/104 111/117/109 112/118/110
f 103/113/105 109/119/111 110/120/112
f 101/114/106 107/121/113 108/122/114
f 105/112/104 113/116/108 106/111/103
f 103/113/105 111/117/109 104/115/107
f 101/114/106 109/123/111 102/124/101
f 100/110/102 14/15/14 107/121/113
f 108/122/114 1/7/7 2/9/9
f 113/116/108 6/1/1 114/11/11
f 110/120/112 5/12/12 111/117/109
f 109/123/111 2/9/9 3/14/4
f 107/121/113 14/15/14 1/7/7
f 78/17/16 113/116/108 114/11/11
f 111/117/109 6/1/1 112/118/110
f 110/120/112 3/4/4 4/6/6
f 6/1/1 5/12/12 11/2/2
f 3/4/4 9/125/13 10/5/5
f 1/7/7 7/16/15 8/8/8
f 6/1/1 12/3/3 13/10/10
f 5/12/12 4/6/6 10/5/5
f 2/9/9 8/8/8 9/13/13
f 13/10/10 12/3/3 20/18/17
f 10/20/5 18/24/22 19/21/19
f 8/8/8 16/25/23 17/22/20
f 12/3/3 11/2/2 19/21/19
f 10/20/5 9/13/13 17/22/20
f 7/16/15 15/23/21 16/25/23
f 16/25/23 23/31/29 24/26/24
f 19/21/19 26/32/30 27/29/27
f 17/22/20 24/26/24 25/30/28
f 15/23/21 22/27/25 23/31/29
f 20/18/17 27/29/27 28/28/26
f 18/24/22 25/30/28 26/32/30
f 26/32/30 33/37/35 34/34/32
f 24/26/24 31/38/36 32/35/33
f 22/27/25 29/39/37 30/36/34
f 28/28/26 27/29/27 34/34/32
f 25/30/28 32/35/33 33/37/35
f 23/31/29 30/36/34 31/38/36
f 29/39/37 36/46/44 37/40/38
f 35/33/31 34/34/32 41/41/39
f 33/37/35 32/35/33 39/43/41
f 30/36/34 37/40/38 38/45/43
f 33/37/35 40/44/42 41/41/39
f 31/38/36 38/45/43 39/43/41
f 42/42/40 41/41/39 48/47/45
f 40/44/42 39/43/41 46/49/47
f 37/40/38 44/53/51 45/51/49
f 40/44/42 47/50/48 48/47/45
f 38/45/43 45/51/49 46/49/47
f 36/46/44 43/52/50 44/53/51
f 47/50/48 54/59/57 55/56/54
f 45/51/49 52/60/58 53/57/55
f 44/53/51 43/52/50 50/54/52
f 48/47/45 55/56/54 56/55/53
f 46/49/47 53/57/55 54/59/57
f 44/53/51 51/58/56 52/60/58
f 55/56/54 54/59/57 61/61/59
f 53/57/55 52/60/58 59/63/61
f 50/54/52 57/67/65 58/65/63
f 55/56/54 62/62/60 63/66/64
f 53/57/55 60/64/62 61/61/59
f 52/60/58 51/58/56 58/65/63
f 62/62/60 69/72/70 70/68/66
f 60/64/62 67/73/71 68/69/67
f 58/65/63 65/74/72 66/70/68
f 61/61/59 68/69/67 69/72/70
f 59/63/61 66/82/68 67/73/71
f 58/65/63 57/67/65 64/71/69
f 68/69/67 67/73/71 74/75/73
f 66/70/68 65/74/72 72/77/75
f 68/69/67 75/76/74 76/81/79
f 66/82/68 73/85/76 74/75/73
f 64/71/69 71/79/77 72/77/75
f 69/72/70 76/81/79 77/80/78
f 75/76/74 83/89/85 84/84/81
f 73/85/76 81/91/86 82/86/82
f 72/77/75 71/79/77 79/87/83
f 77/80/78 76/81/79 84/84/81
f 75/76/74 74/75/73 82/86/82
f 72/90/75 80/98/84 81/91/86
f 82/86/82 81/91/86 88/92/87
f 80/88/84 79/87/83 86/94/89
f 84/84/81 91/99/93 92/96/91
f 82/86/82 89/93/88 90/97/92
f 80/98/84 87/102/90 88/92/87
f 84/84/81 83/89/85 90/97/92
f 91/99/93 98/105/98 99/100/94
f 89/93/88 96/106/99 97/101/95
f 87/102/90 94/108/100 95/103/96
f 90/97/92 97/101/95 98/105/98
f 89/93/88 88/92/87 95/103/96
f 87/95/90 86/94/89 93/104/97
f 94/108/100 101/126/106 102/109/101
f 97/101/95 104/115/107 105/112/104
f 95/103/96 102/109/101 103/113/105
f 94/107/100 93/104/97 100/110/102
f 99/100/94 98/105/98 105/112/104
f 96/106/99 103/113/105 104/115/107
f 105/112/104 104/115/107 111/117/109
f 103/113/105 102/109/101 109/119/111
f 101/114/106 100/110/102 107/121/113
f 105/112/104 112/118/110 113/116/108
f 103/113/105 110/120/112 111/117/109
f 101/114/106 108/122/114 109/123/111
f 108/122/114 107/121/113 1/7/7
f 113/116/108 112/118/110 6/1/1
f 110/120/112 4/6/6 5/12/12
f 109/123/111 108/122/114 2/9/9
f 111/117/109 5/12/12 6/1/1
f 110/120/112 109/119/111 3/4/4
